<svg height="512pt" viewBox="-144 0 512 512.00081" width="512pt" xmlns="http://www.w3.org/2000/svg"><path d="m210.882812 103.074219c2.0625-4.097657 2.273438-8.878907.582032-13.144531l-31.679688-79.796876c-3.273437-8.238281-12.601562-12.265624-20.84375-8.996093-8.238281 3.269531-12.265625 12.601562-8.996094 20.839843l29.023438 73.097657-32.875 65.265625h-38.046875l-36.871094-65.246094 33.207031-72.34375c3.699219-8.054688.167969-17.582031-7.890624-21.28125-8.054688-3.699219-17.585938-.167969-21.28125 7.890625l-36.628907 79.796875c-2.148437 4.683594-1.917969 10.109375.613281 14.59375l40.394532 71.484375v106.167969l-68.480469 36.242187c-7 3.703125-11.300781 11.046875-11.1015625 18.964844.1953125 7.914063 4.8554685 15.039063 12.0273435 18.390625l104.972656 49.046875c2.859376 1.335937 5.863282 1.964844 8.820313 1.964844 1.53125 0 3.046875-.171875 4.523437-.5v85.617187c0 11.527344 9.34375 20.871094 20.871094 20.871094s20.871094-9.34375 20.871094-20.871094c-.019531-17.789062-.363281-297.460937-.378906-310.300781zm-143.195312 231.851562c44.066406-23.558593 46.554688-25.300781 46.554688-25.300781h16.109374v54.582031zm0 0" fill="#ffb69e"/><path d="m161.890625 103.128906c0 19.910156-16.136719 36.046875-36.046875 36.046875-19.90625 0-36.046875-16.136719-36.046875-36.046875 0-19.90625 16.140625-36.046875 36.046875-36.046875 19.910156 0 36.046875 16.140625 36.046875 36.046875zm0 0" fill="#ffb69e"/><path d="m223.882812 321.9375c-8.003906-11.425781-26.003906-34.0625-52.164062-49.632812v-91.476563l13.582031-26.972656-28.507812-14.757813-11.757813 21.242188c.425782 9.796875-8.667968 18.136718-18.15625 18.136718-10.171875 0-17.707031-8.308593-18.15625-18.136718l-12.679687-21.242188-28.804688 14.277344 12.351563 21.859375v84.648437c-26.84375 6.351563-49.585938 18.488282-60.957032 25.304688-3.695312 2.214844-3.660156 7.582031.070313 9.738281 15.398437 8.894531 52.019531 27.816407 97.21875 35.90625 45.78125 8.191407 87.164063 2.90625 104.300781-.078125 4.085938-.714844 6.039063-5.421875 3.660156-8.816406zm0 0" fill="#ff6473"/><path d="m141.535156 70.679688c.097656-.726563.171875-1.464844.171875-2.21875 0-8.917969-7.230469-16.152344-16.152343-16.152344-8.917969 0-16.148438 7.230468-16.148438 16.152344 0 .84375.085938 1.664062.210938 2.472656-10.71875 5.414062-18.367188 16.023437-19.632813 28.519531 4.402344 3.339844 9.886719 5.328125 15.839844 5.328125 5.324219 0 10.277343-1.585938 14.410156-4.3125 5.355469-3.53125 11.988281-4.734375 18.035156-2.59375 2.792969.988281 5.800781 1.527344 8.933594 1.527344 5.082031 0 9.832031-1.414063 13.878906-3.871094-2.355469-10.96875-9.703125-20.082031-19.546875-24.851562zm0 0" fill="#80391b"/></svg>